<?xml version="1.0" encoding="utf-8"?>
<!-- Generator: Adobe Illustrator 25.1.0, SVG Export Plug-In . SVG Version: 6.00 Build 0)  -->
<svg version="1.1" id="Layer_1" xmlns="http://www.w3.org/2000/svg" xmlns:xlink="http://www.w3.org/1999/xlink" x="0px" y="0px"
	 viewBox="0 0 205 90" style="enable-background:new 0 0 205 90;" xml:space="preserve">
<style type="text/css">
	.st0{fill:#3A53A4;}
	.st1{fill:#3953A4;}
</style>
<g>
	<g>
		<g>
			<path class="st0" d="M180.61,76.41c0-6.32,8.42-22.37,12.24-31.06l-0.92-0.53c-16.98,31.32-27.64,44.74-34.61,44.74
				c-5.26,0-10-10.4-10-30.4c0-19.21,14.08-39.22,54.48-39.61c-5.66,14.21-10.26,32.9-10.26,41.19c0,4.74,3.16,6.58,5.79,6.58
				c2.9,0,2.63-1.77,5.92-11.24l1.34-1.34c-5.53,27.37-9.36,34.69-16.07,34.69C184.29,89.44,180.61,83.51,180.61,76.41z
				 M191.01,44.56c-33.56,4.21-42.9,10.13-42.9,14.61c0,3.29,5,5.26,11.32,5.26C164.95,64.43,179.69,62.06,191.01,44.56z"/>
		</g>
	</g>
</g>
<g>
	<g>
		<g>
			<path class="st0" d="M22.6,50.85H0.3v-0.34c0-7.49,4.53-15.35,7.23-19.37c2.25-3.35,4.92-6.08,7.94-8.12l0.15-0.1
				c3.48-2.31,7.49-3.52,11.66-3.52h39.5c1.63,0,3.13,0.23,4.47,0.68c2.99,1.01,5.29,2.87,6.83,5.53c1.26,2.19,1.82,4.8,1.62,7.55
				c-0.4,5.25-2.12,9.2-5.12,11.74c-4.53,3.83-10.27,3.06-10.51,3.02c-11.31-0.74-11.44-16.3-11.44-16.46
				c-2-10.5-11.8-9.95-12.21-9.92c-5.92,0-8.77,2.96-10.13,5.44c-0.93,1.7-1.42,3.73-1.42,5.87v11.8c0,2.8-1.41,4.34-2.59,5.14
				C25.23,50.48,23.96,50.85,22.6,50.85z M0.95,50.17H22.6c1.24,0,2.38-0.33,3.31-0.95c1.52-1.03,2.29-2.56,2.29-4.57v-11.8
				c0-2.26,0.52-4.41,1.51-6.21c1.45-2.64,4.47-5.78,10.68-5.78c0.08,0,10.75-0.62,12.88,10.53c0.01,0.22,0.14,15.14,10.86,15.85
				c0.08,0.01,5.74,0.76,10.05-2.88c2.85-2.42,4.49-6.2,4.87-11.26c0.2-2.61-0.33-5.08-1.52-7.14c-1.45-2.51-3.63-4.27-6.47-5.23
				c-1.27-0.43-2.71-0.65-4.27-0.65H27.28c-4.04,0-7.94,1.17-11.27,3.38l-0.2,0.13c-2.95,2-5.56,4.67-7.76,7.94
				C5.44,35.42,1.08,42.96,0.95,50.17z"/>
		</g>
	</g>
</g>
<g>
	<g>
		<g>
			<rect x="0.62" y="53.83" class="st0" width="67.56" height="0.68"/>
		</g>
	</g>
</g>
<g>
	<g>
		<g>
			<path class="st0" d="M0.62,57.95c0,0-0.7,21.7,6.28,26.18c0,0,1.4,3.74,25.81,3.74v-1.5c0,0-4.64,0.91-8.35-3.27
				c-1.82-2.05-2.81-4.79-2.94-7.62l-0.57-12.3c0,0,0-5.24-4.19-5.24L0.62,57.95L0.62,57.95z"/>
		</g>
	</g>
</g>
<g>
	<g>
		<g>
			<path class="st0" d="M68.29,88.21H49.45c-8.17,0-13-4.07-13.44-4.46c-6.33-3.72-7.75-15.14-7.81-15.63
				c-0.44-3.73-1.72-6.37-3.78-7.85c-2.84-2.04-6.25-1.17-6.29-1.16l-0.16-0.66c0.15-0.04,3.72-0.96,6.81,1.25
				c2.23,1.6,3.6,4.4,4.07,8.34c0.01,0.12,1.45,11.59,7.51,15.13l0.05,0.04c0.05,0.04,4.9,4.31,13.04,4.31h18.84V88.21z"/>
		</g>
	</g>
</g>
<g>
	<g>
		<g>
			<ellipse class="st0" cx="67.57" cy="74.74" rx="12.7" ry="13.25"/>
		</g>
	</g>
	<g>
		<g>
			<path class="st0" d="M67.57,88.33c-7.18,0-13.03-6.1-13.03-13.59s5.84-13.59,13.03-13.59c7.18,0,13.03,6.1,13.03,13.59
				S74.75,88.33,67.57,88.33z M67.57,61.84c-6.83,0-12.38,5.79-12.38,12.9c0,7.12,5.55,12.91,12.38,12.91s12.38-5.79,12.38-12.91
				C79.95,67.63,74.39,61.84,67.57,61.84z"/>
		</g>
	</g>
</g>
<g>
	<g>
		<g>
			<path class="st1" d="M132.43,49.6c2.74,0.69,9.6,4.11,9.6,4.11l8.91-28.11c-6.17-6.17-15.77-6.17-15.77-6.17
				c-9.87,0-21.12,13.42-27.96,63.16l-0.79-0.13c1.71-14.74,3.42-26.71,3.42-34.35c0-21.32-3.29-28.43-8.29-28.43
				c-7.37,0-11.58,10.26-16.71,32.51l0.53,0.13c1.97-6.97,6.19-8.29,13.03-8.29c7.5,0,10.66,1.97,10.66,4.34
				c0,5.66-17.82,24.35-22.56,39.61h20.98C109.84,61.93,116.9,46.31,132.43,49.6z"/>
		</g>
	</g>
</g>
<g>
	<g>
		<g>
			<circle class="st0" cx="67.54" cy="54.2" r="2.69"/>
		</g>
	</g>
</g>
<g>
	<g>
		<g>
			<path class="st0" d="M22.6,50.85H0.3v-0.34c0-7.49,4.53-15.35,7.23-19.37c2.25-3.35,4.92-6.08,7.94-8.12l0.15-0.1
				c3.48-2.31,7.49-3.52,11.66-3.52h39.5c1.63,0,3.13,0.23,4.47,0.68c2.99,1.01,5.29,2.87,6.83,5.53c1.26,2.19,1.82,4.8,1.62,7.55
				c-0.4,5.25-2.12,9.2-5.12,11.74c-4.53,3.83-10.27,3.06-10.51,3.02c-11.31-0.74-11.44-16.3-11.44-16.46
				c-2-10.5-11.8-9.95-12.21-9.92c-5.92,0-8.77,2.96-10.13,5.44c-0.93,1.7-1.42,3.73-1.42,5.87v11.8c0,2.8-1.41,4.34-2.59,5.14
				C25.23,50.48,23.96,50.85,22.6,50.85z M0.95,50.17H22.6c1.24,0,2.38-0.33,3.31-0.95c1.52-1.03,2.29-2.56,2.29-4.57v-11.8
				c0-2.26,0.52-4.41,1.51-6.21c1.45-2.64,4.47-5.78,10.68-5.78c0.08,0,10.75-0.62,12.88,10.53c0.01,0.22,0.14,15.14,10.86,15.85
				c0.08,0.01,5.74,0.76,10.05-2.88c2.85-2.42,4.49-6.2,4.87-11.26c0.2-2.61-0.33-5.08-1.52-7.14c-1.45-2.51-3.63-4.27-6.47-5.23
				c-1.27-0.43-2.71-0.65-4.27-0.65H27.28c-4.04,0-7.94,1.17-11.27,3.38l-0.2,0.13c-2.95,2-5.56,4.67-7.76,7.94
				C5.44,35.42,1.08,42.96,0.95,50.17z"/>
		</g>
	</g>
</g>
<g>
	<g>
		<g>
			<rect x="0.62" y="53.83" class="st0" width="67.56" height="0.68"/>
		</g>
	</g>
</g>
<g>
	<g>
		<g>
			<path class="st0" d="M0.62,57.95c0,0-0.7,21.7,6.28,26.18c0,0,1.4,3.74,25.81,3.74v-1.5c0,0-4.64,0.91-8.35-3.27
				c-1.82-2.05-2.81-4.79-2.94-7.62l-0.57-12.3c0,0,0-5.24-4.19-5.24L0.62,57.95L0.62,57.95z"/>
		</g>
	</g>
</g>
<g>
	<g>
		<g>
			<path class="st0" d="M68.29,88.21H49.45c-8.17,0-13-4.07-13.44-4.46c-6.33-3.72-7.75-15.14-7.81-15.63
				c-0.44-3.73-1.72-6.37-3.78-7.85c-2.84-2.04-6.25-1.17-6.29-1.16l-0.16-0.66c0.15-0.04,3.72-0.96,6.81,1.25
				c2.23,1.6,3.6,4.4,4.07,8.34c0.01,0.12,1.45,11.59,7.51,15.13l0.05,0.04c0.05,0.04,4.9,4.31,13.04,4.31h18.84V88.21z"/>
		</g>
	</g>
</g>
<g>
	<g>
		<g>
			<ellipse class="st0" cx="67.57" cy="74.74" rx="12.7" ry="13.25"/>
		</g>
	</g>
	<g>
		<g>
			<path class="st0" d="M67.57,88.33c-7.18,0-13.03-6.1-13.03-13.59s5.84-13.59,13.03-13.59c7.18,0,13.03,6.1,13.03,13.59
				S74.75,88.33,67.57,88.33z M67.57,61.84c-6.83,0-12.38,5.79-12.38,12.9c0,7.12,5.55,12.91,12.38,12.91s12.38-5.79,12.38-12.91
				C79.95,67.63,74.39,61.84,67.57,61.84z"/>
		</g>
	</g>
</g>
<g>
	<g>
		<g>
			<circle class="st0" cx="67.54" cy="54.2" r="2.69"/>
		</g>
	</g>
</g>
<g>
	<g>
		<path class="st0" d="M57.03,2.79H56.9c-0.49,0-1.24,0.03-1.87,0.06l-0.01,0.02C54.5,5,54.48,5.13,54.73,5.18l0.44,0.08v0.03h-2.3
			V5.26l0.52-0.09c0.22-0.05,0.29-0.22,0.79-2.22c0.53-2.13,0.55-2.26,0.3-2.31l-0.44-0.08l0.01-0.03h2.29v0.03l-0.52,0.08
			c-0.21,0.03-0.29,0.21-0.76,2.07c0.62,0.02,1.36,0.04,1.84,0.04h0.13c0.48-1.94,0.49-2.07,0.25-2.11l-0.44-0.08l0.01-0.03h2.29
			v0.03l-0.52,0.08c-0.22,0.03-0.3,0.21-0.8,2.23C57.3,5,57.28,5.13,57.53,5.18l0.44,0.08v0.03h-2.3V5.26l0.52-0.09
			c0.22-0.05,0.29-0.22,0.79-2.22C57,2.89,57.01,2.84,57.03,2.79z"/>
	</g>
	<g>
		<path class="st0" d="M69.92,5.37c-0.93,0-1.59-0.79-1.59-1.91c0-1.43,1.1-3,2.7-3c0.95,0,1.64,0.74,1.64,1.83
			C72.67,3.73,71.41,5.37,69.92,5.37z M68.42,3.56c0,0.57,0.47,0.95,1.44,0.95c1.64,0,2.73-1.24,2.73-2.33
			c0-0.56-0.47-0.93-1.38-0.93C69.52,1.25,68.42,2.44,68.42,3.56z"/>
	</g>
	<g>
		<path class="st0" d="M86.45,3.59c-0.25,0.97-1.03,1.79-2.05,1.79c-0.96,0-1.49-0.48-1.49-1.21c0-0.24,0.09-0.6,0.23-1.14
			c0.57-2.3,0.58-2.37,0.22-2.42l-0.28-0.05l0.01-0.03h2.26v0.03l-0.49,0.06c-0.31,0.04-0.35,0.19-0.99,2.73
			c-0.06,0.26-0.1,0.5-0.1,0.69c-0.01,0.74,0.42,0.98,1.22,0.98c0.72,0,0.92-0.29,1.19-1.37c0.68-2.69,0.63-2.93,0.13-3.04
			l-0.37-0.06V0.52h1.91v0.03l-0.37,0.06c-0.29,0.06-0.35,0.16-0.82,2.03C86.55,3.13,86.52,3.33,86.45,3.59z"/>
	</g>
	<g>
		<path class="st0" d="M100.72,0.64c-0.17,0.6-0.27,1.06-0.42,1.84l-0.03-0.01c0.21-1.1-0.03-1.25-1.01-1.25
			c-1.03,0-1.57,0.4-1.57,0.79c0,0.67,2.64,0.48,2.64,1.5c0,0.7-1.12,1.86-2.15,1.86c-0.66,0-1.15-0.34-1.4-0.58
			c0.2-0.56,0.31-1.13,0.42-1.68l0.03,0.01c-0.17,1.46,0.64,1.64,1.68,1.64c0.72,0,1.01-0.23,1.02-0.73
			c-0.01-0.72-2.3-1.07-2.3-2.03c0-0.77,0.67-1.54,1.88-1.54C100.01,0.45,100.49,0.55,100.72,0.64z"/>
	</g>
	<g>
		<path class="st0" d="M111.41,5.23c1.29-0.08,1.64-0.26,2.12-1.03l0.5-0.85h0.03c-0.25,0.68-0.48,1.4-0.64,1.95h-3.63V5.27
			l0.37-0.07c0.37-0.06,0.39-0.15,0.88-2.15c0.59-2.35,0.56-2.38,0.21-2.43l-0.29-0.05V0.54h3.6c-0.12,0.53-0.23,1.22-0.32,1.88
			h-0.03l-0.1-0.77c-0.14-0.76-0.33-0.98-1.54-1.05c-0.13,0.2-0.2,0.41-0.66,2.27c0.89-0.02,1.06-0.17,1.32-0.68l0.25-0.54h0.03
			c-0.17,0.54-0.47,1.97-0.56,2.49h-0.03V3.61c-0.02-0.55-0.16-0.68-1.02-0.71l-0.01,0.04C111.41,4.82,111.38,5.05,111.41,5.23z"/>
	</g>
	<g>
		<path class="st0" d="M136.34,5.37c-0.93,0-1.59-0.79-1.59-1.91c0-1.43,1.1-3,2.7-3c0.95,0,1.64,0.74,1.64,1.83
			C139.08,3.73,137.82,5.37,136.34,5.37z M134.83,3.56c0,0.57,0.47,0.95,1.44,0.95c1.64,0,2.73-1.24,2.73-2.33
			c0-0.56-0.47-0.93-1.38-0.93C135.93,1.25,134.83,2.44,134.83,3.56z"/>
	</g>
	<g>
		<path class="st0" d="M150.53,2.94c0.91-0.03,1.1-0.17,1.35-0.68l0.25-0.53h0.03c-0.18,0.56-0.49,2.05-0.58,2.6h-0.02l-0.01-0.53
			c-0.04-0.61-0.14-0.78-1.03-0.81c-0.52,2.11-0.48,2.15-0.03,2.22l0.52,0.06V5.3h-2.64V5.27l0.38-0.06
			c0.44-0.07,0.45-0.17,0.95-2.16c0.59-2.35,0.57-2.38,0.21-2.43l-0.35-0.05l0.01-0.03h3.58c-0.12,0.55-0.25,1.26-0.33,1.95h-0.03
			l-0.08-0.84c-0.08-0.79-0.28-0.99-1.47-1.06c-0.13,0.2-0.2,0.38-0.64,2.16C150.57,2.79,150.56,2.87,150.53,2.94z"/>
	</g>
</g>
</svg>
