<svg version="1.1" id="Layer_1" xmlns="http://www.w3.org/2000/svg" x="0" y="0" viewBox="0 0 260 84" xml:space="preserve">
  <style>
    .st0{fill:#fff}
  </style>
  <path class="st0" d="M130.23 84.22C59.12 84.22 1.26 65.49 1.26 42.47S59.11.72 130.23.72c71.11 0 128.97 18.73 128.97 41.75s-57.86 41.75-128.97 41.75zm0-82.5C59.67 1.72 2.26 20 2.26 42.47s57.41 40.75 127.97 40.75S258.2 64.94 258.2 42.47 200.79 1.72 130.23 1.72z"/>
  <path class="st0" d="M113.07 55.94h-13.6v-.16l2.34-.45c2.46-.45 2.26-1.93 3.78-22.76-.62-.45-1.36-.7-2.51-.82l-2.46-.29v-.16h7.72c3.29 8.01 6.7 15.53 9.86 21.28 4.52-9.2 6.41-13.14 9.9-21.28h6.74l.04.16-2.42.33c-2.46.29-2.42.57-1.93 11.83.41 11.25.45 11.3 3.41 11.83l1.93.33v.16h-14.13l-.04-.16 4.23-.37c3.12-.25 3.08-.66 2.63-11.83-.33-7.8-.41-9.94-.49-10.68-3.7 7.56-5.79 11.99-10.8 23.04h-.16c-3-6.82-6.98-16.14-10.27-21.85-.33-.58-.66-1.03-1.03-1.36-.41 20.74-.66 22.1 1.89 22.43l5.38.62-.01.16zM144.66 30.92c-.04.99-.25 2.83-.25 12.49 0 10.8 0 11.38 1.15 11.62l3.37.74-.04.16h-11.54v-.16l3.86-.62c1.07-.21 1.27-1.07 1.27-11.34 0-10.31-.16-10.56-2.18-10.6h-2.79l.04-.21c2.51-.12 5.01-.62 6.94-2.18l.17.1zM157.52 30.92c-.04.99-.25 2.83-.25 12.49 0 10.8 0 11.38 1.15 11.62l3.37.74-.04.16h-11.54v-.16l3.86-.62c1.07-.21 1.27-1.07 1.27-11.34 0-10.31-.16-10.56-2.18-10.6h-2.79l.04-.21c2.51-.12 5.01-.62 6.94-2.18l.17.1z"/>
</svg>